<?xml version="1.0" encoding="utf-8"?>
<!-- Generator: Adobe Illustrator 16.0.0, SVG Export Plug-In . SVG Version: 6.00 Build 0)  -->
<!DOCTYPE svg PUBLIC "-//W3C//DTD SVG 1.1//EN" "http://www.w3.org/Graphics/SVG/1.1/DTD/svg11.dtd">
<svg version="1.1" id="Calque_1" xmlns="http://www.w3.org/2000/svg" xmlns:xlink="http://www.w3.org/1999/xlink" x="0px" y="0px"
	 width="250px" height="250px" viewBox="0 0 250 250" enable-background="new 0 0 250 250" xml:space="preserve">
<g>
	<defs>
		<rect id="SVGID_1_" x="-115" y="-21.28" width="841.89" height="595.28"/>
	</defs>
	<clipPath id="SVGID_2_">
		<use xlink:href="#SVGID_1_"  overflow="visible"/>
	</clipPath>
	<path clip-path="url(#SVGID_2_)" fill="none" stroke="#FFFFFF" stroke-width="3" stroke-miterlimit="10" d="M284.884,309.868
		c3.675-24.354,13.115-40.855,42.212-42.01c26.771-1.064,41.28,20.002,43.767,51.373c0.203,2.569,0.326,0.335,0.369,3.036"/>
	<path clip-path="url(#SVGID_2_)" fill="none" stroke="#FFFFFF" stroke-width="3" stroke-miterlimit="10" d="M183.701,113.121
		c5.91,17.788,5.616,39.659-2.269,63.587c-21.126,64.112-8.557,134.58,1.896,138.543"/>
	<path clip-path="url(#SVGID_2_)" fill="none" stroke="#FFFFFF" stroke-width="3" stroke-miterlimit="10" d="M134.703,144.789
		c4.656,16.88-9.966,36.931-29.782,43.802c-37.436,12.98-64.07-11.228-51.706-60.1c4.039-15.969,12.02-32.195,23.142-43.895"/>
	<path clip-path="url(#SVGID_2_)" fill="none" stroke="#FFFFFF" stroke-width="3" stroke-miterlimit="10" d="M131.086,167.107
		c3.577,10.795,3.636,26.436-5.529,44.524c-20.291,40.041-31.555,62.653-23.319,106.544"/>
	<path clip-path="url(#SVGID_2_)" fill="#FDFDFE" stroke="#FFFFFF" stroke-miterlimit="10" d="M122.13,124.158
		c0.315,2.66-2.387,5.167-6.035,5.599c-3.647,0.432-6.86-1.375-7.175-4.035c-0.314-2.661,2.387-5.167,6.035-5.599
		S121.814,121.498,122.13,124.158"/>
	<path clip-path="url(#SVGID_2_)" fill="none" stroke="#FFFFFF" stroke-width="3" stroke-miterlimit="10" d="M470.005,321.137
		c-0.131-0.962-0.34-3.085-0.416-3.718c-0.048-0.402-0.082-0.719-0.098-0.929c-4.137-52.81,6.019-108.62,54.009-121.032
		c42.531-11,64.274,39.117,50.5,63.262"/>
	<path clip-path="url(#SVGID_2_)" fill="none" stroke="#FFFFFF" stroke-width="3" stroke-miterlimit="10" d="M532.707,319.998
		c-0.168-0.389-4.373-8.7-4.537-9.089c-16.049-37.997-13.733-74.062,9.33-82.189c18.674-6.58,38.864,10.644,36.5,30"/>
	<path clip-path="url(#SVGID_2_)" fill="none" stroke="#FFFFFF" stroke-width="3" stroke-miterlimit="10" d="M182.367,314.291
		c-6.767,7.679-23.096,13.093-42.165,13.093c-16.276,0-30.556-4.15-38.597-10.08"/>
	<path clip-path="url(#SVGID_2_)" stroke="#FFFFFF" stroke-miterlimit="10" d="M142.5,339.22c-35.327,0-63-10.527-63-23.969
		c0-6.056,1.352-9.38,9.438-13.286c0.752-0.363,1.662-0.036,2.005,0.727l0.014,0.03c0.33,0.733,0.008,1.597-0.716,1.945
		c-7.396,3.563-7.741,6.033-7.741,10.584c0,11.366,27.477,20.969,60,20.969c30.643,0,53.75-9.157,53.75-21.304
		c0-2.883-1.062-4.649-3.711-5.991c-0.692-0.35-1.021-1.156-0.737-1.877l0.013-0.03c0.317-0.803,1.262-1.18,2.033-0.791
		c3.722,1.875,5.402,4.606,5.402,8.689C199.25,329.226,175.914,339.22,142.5,339.22"/>
	<path clip-path="url(#SVGID_2_)" fill="none" stroke="#FFFFFF" stroke-width="3" stroke-miterlimit="10" d="M285.297,309.265
		c-5.456,5.663-16.379,9.528-28.963,9.528c-13.084,0-24.372-4.177-29.587-10.21"/>
	<path clip-path="url(#SVGID_2_)" stroke="#FFFFFF" stroke-miterlimit="10" d="M256.448,330.72
		c-20.073,0.001-34.719-8.621-38.948-14.501c-0.542-0.753-0.213-1.82,0.639-2.189l0.03-0.014c0.636-0.275,1.375-0.081,1.779,0.482
		c3.241,4.514,16.394,13.222,36.493,13.222h0.18c20.668-0.054,38.129-8.105,38.129-17.586c0-3.21-0.582-5.543-3.351-7.492
		c-0.629-0.441-0.845-1.275-0.471-1.947l0.017-0.031c0.421-0.757,1.413-1.009,2.124-0.513c4.078,2.847,4.681,6.464,4.681,9.983
		c0,11.483-18.063,20.526-41.121,20.586H256.448z"/>
	<path clip-path="url(#SVGID_2_)" fill="none" stroke="#FFFFFF" stroke-width="3" stroke-miterlimit="10" d="M427.647,320.388
		c-3.688,4.749-14.397,8.832-28.813,8.832c-12.918,0-23.916-3.283-28.066-7.877"/>
	<path clip-path="url(#SVGID_2_)" stroke="#FFFFFF" stroke-miterlimit="10" d="M399.125,340.22
		c-23.341,0-41.625-8.181-41.625-18.625c0-1.711,0.484-3.385,1.441-4.991c0.449-0.758,1.483-0.926,2.178-0.384l0.027,0.023
		c0.594,0.463,0.727,1.29,0.347,1.938c-0.66,1.127-0.993,2.271-0.993,3.413c0,8.471,17.688,15.625,38.625,15.625
		c17.398,0,33.005-5.022,37.415-11.856c0.402-0.622,1.183-0.869,1.858-0.564l0.032,0.016c0.812,0.365,1.144,1.37,0.663,2.12
		C434.042,334.829,418.058,340.22,399.125,340.22"/>
	<path clip-path="url(#SVGID_2_)" fill="none" stroke="#FFFFFF" stroke-width="3" stroke-miterlimit="10" d="M533.223,318.324
		c-5.868,5.388-18.612,9.121-33.39,9.121c-12.714,0-23.923-2.764-30.542-6.968"/>
	<path clip-path="url(#SVGID_2_)" stroke="#FFFFFF" stroke-miterlimit="10" d="M501.195,339.345c-14.79,0-28.505-3.367-36.371-8.856
		c-0.706-0.493-0.853-1.478-0.317-2.151l0.021-0.024c0.484-0.607,1.354-0.746,1.99-0.301c7.348,5.164,20.439,8.333,34.678,8.333
		c21.848,0,40.305-7.642,40.305-16.687c0-1.962-0.47-8.14-6.174-9.797c-0.727-0.212-1.206-0.903-1.093-1.653l0.005-0.035
		c0.13-0.869,0.992-1.457,1.837-1.221c6.176,1.729,8.425,7.549,8.425,12.706C544.5,330.698,525.479,339.345,501.195,339.345"/>
	<path clip-path="url(#SVGID_2_)" fill="none" stroke="#FFFFFF" stroke-width="4" stroke-miterlimit="10" d="M174.25,74.073
		c14.5,5.698,22.326,20.556,20.392,27.565c-3.869,14.02-34.456,17.81-68.319,8.465c-33.862-9.344-58.177-28.284-54.309-42.304
		c1.898-6.877,8.236-15.739,33.812-11.829"/>
	
		<ellipse transform="matrix(0.9644 0.2643 -0.2643 0.9644 19.9491 -36.3058)" clip-path="url(#SVGID_2_)" fill="none" stroke="#FFFFFF" stroke-width="4" stroke-miterlimit="10" cx="144.872" cy="55.969" rx="33.147" ry="9.206"/>
	
		<line clip-path="url(#SVGID_2_)" fill="none" stroke="#FFFFFF" stroke-width="4" stroke-miterlimit="10" x1="112.903" y1="47.207" x2="95" y2="73.935"/>
	
		<line clip-path="url(#SVGID_2_)" fill="none" stroke="#FFFFFF" stroke-width="4" stroke-miterlimit="10" x1="176.84" y1="64.732" x2="168.5" y2="94.81"/>
	<use xlink:href="#SVGID_1_"  overflow="visible" fill="none" stroke="#FFFFFF" stroke-miterlimit="10"/>
</g>
</svg>
